# xmcd CD database file
#
# Track frame offsets:
#	183
#	16185
#	30593
#	47650
#	59385
#	75433
#	102955
#	117180
#	132228
#	145868
#	157353
#	171675
#	191078
#	204998
#	225725
#	245545
#	258445
#	274708
#
# Disc length: 3842 seconds
#
# Revision: 4
# Processed by: cddbd v1.5.2PL0 Copyright (c) Steve Scherf et al.
# Submitted via: CDex 1.70beta2
#
DISCID=fd0f0012
DTITLE=JERRY LEE LEWIS - COUNTRY CLASSICS
DYEAR=1995
DGENRE=Country
TTITLE0=YOU WIN AGAIN
TTITLE1=WHAT'S MADE MILWAUKEE FAMOUS
TTITLE2=I CAN'T STOP LOVING YOU
TTITLE3=YOUR CHEATING HEART
TTITLE4=MIDDLE AGE CRAZY
TTITLE5=MEXICALI ROSE
TTITLE6=BOTTLES AND BARSTOOLS
TTITLE7=COLD COLD HEART
TTITLE8=ANOTHER PLACE ANOTHER TIME
TTITLE9=I'LL FIND IT WHERE I CAN
TTITLE10=CARELESS HANDS
TTITLE11=THERE MUST BE MORE TO LOVE THAN THIS
TTITLE12=TOUCHING HOME
TTITLE13=YOU ARE MY SUNSHINE
TTITLE14=THIRTY NINE AND HOLDING
TTITLE15=HEY GOOD LOOKIN'
TTITLE16=SHE EVEN WOKE ME UP TO SAY GOODBYE
TTITLE17=WILL THE CIRCLE BE BROKEN
EXTD=Torpedo Music Ltd. TORCD026. Made in the EEC [EU] YEAR: 1995
EXTT0=
EXTT1=
EXTT2=
EXTT3=
EXTT4=
EXTT5=
EXTT6=
EXTT7=
EXTT8=
EXTT9=
EXTT10=
EXTT11=
EXTT12=
EXTT13=
EXTT14=
EXTT15=
EXTT16=
EXTT17=
PLAYORDER=
